HIERARCHY
ROOT Hips
{
  OFFSET -93.2783 94.5362 -29.8684
  CHANNELS 6 Xposition Yposition Zposition Zrotation Xrotation Yrotation
  JOINT Spine
  {
    OFFSET 0 7.29544 0
    CHANNELS 6 Xposition Yposition Zposition Zrotation Xrotation Yrotation
    JOINT Spine1
    {
      OFFSET 0 7.29544 0
      CHANNELS 6 Xposition Yposition Zposition Zrotation Xrotation Yrotation
      JOINT Spine2
      {
        OFFSET 0 7.29544 0
        CHANNELS 6 Xposition Yposition Zposition Zrotation Xrotation Yrotation
        JOINT Spine3
        {
          OFFSET 0 7.29544 0
          CHANNELS 6 Xposition Yposition Zposition Zrotation Xrotation Yrotation
          JOINT Neck
          {
            OFFSET 0 15.5028 0
            CHANNELS 6 Xposition Yposition Zposition Zrotation Xrotation Yrotation
            JOINT Head
            {
              OFFSET 0 9.84884 0
              CHANNELS 6 Xposition Yposition Zposition Zrotation Xrotation Yrotation
              End Site
              {
                OFFSET 0 18.4666 0
              }
            }
          }
          JOINT LeftShoulder
          {
            OFFSET 5 17 0
            CHANNELS 6 Xposition Yposition Zposition Zrotation Xrotation Yrotation
            JOINT LeftShoulder2
            {
              OFFSET 6.75 0 0
              CHANNELS 6 Xposition Yposition Zposition Zrotation Xrotation Yrotation
              JOINT LeftArm
              {
                OFFSET 6.75 0 0
                CHANNELS 6 Xposition Yposition Zposition Zrotation Xrotation Yrotation
                JOINT LeftForeArm
                {
                  OFFSET 0 -31.2558 -2
                  CHANNELS 6 Xposition Yposition Zposition Zrotation Xrotation Yrotation
                  JOINT LeftHand
                  {
                    OFFSET 0 -24.7442 2
                    CHANNELS 6 Xposition Yposition Zposition Zrotation Xrotation Yrotation
                    JOINT LeftHandThumb1
                    {
                      OFFSET -0.5 -1.5 2.65
                      CHANNELS 6 Xposition Yposition Zposition Zrotation Xrotation Yrotation
                      JOINT LeftHandThumb2
                      {
                        OFFSET 0 -3.8 3.7
                        CHANNELS 6 Xposition Yposition Zposition Zrotation Xrotation Yrotation
                        JOINT LeftHandThumb3
                        {
                          OFFSET 0 -3 2.7
                          CHANNELS 6 Xposition Yposition Zposition Zrotation Xrotation Yrotation
                          End Site
                          {
                            OFFSET 0 -2.3 1.8
                          }
                        }
                      }
                    }
                    JOINT LeftHandIndex
                    {
                      OFFSET 0 -1.9 1.6
                      CHANNELS 6 Xposition Yposition Zposition Zrotation Xrotation Yrotation
                      JOINT LeftHandIndex1
                      {
                        OFFSET 0 -8.3 1.9
                        CHANNELS 6 Xposition Yposition Zposition Zrotation Xrotation Yrotation
                        JOINT LeftHandIndex2
                        {
                          OFFSET 0 -4.5 0
                          CHANNELS 6 Xposition Yposition Zposition Zrotation Xrotation Yrotation
                          JOINT LeftHandIndex3
                          {
                            OFFSET 0 -3.4 0
                            CHANNELS 6 Xposition Yposition Zposition Zrotation Xrotation Yrotation
                            End Site
                            {
                              OFFSET 0 -2.6 0
                            }
                          }
                        }
                      }
                    }
                    JOINT LeftHandMiddle
                    {
                      OFFSET -0.25 -2.2 0.4
                      CHANNELS 6 Xposition Yposition Zposition Zrotation Xrotation Yrotation
                      JOINT LeftHandMiddle1
                      {
                        OFFSET 0 -8.3 1
                        CHANNELS 6 Xposition Yposition Zposition Zrotation Xrotation Yrotation
                        JOINT LeftHandMiddle2
                        {
                          OFFSET 0 -4.65 0
                          CHANNELS 6 Xposition Yposition Zposition Zrotation Xrotation Yrotation
                          JOINT LeftHandMiddle3
                          {
                            OFFSET 0 -3.3 0
                            CHANNELS 6 Xposition Yposition Zposition Zrotation Xrotation Yrotation
                            End Site
                            {
                              OFFSET 0 -2.7 0
                            }
                          }
                        }
                      }
                    }
                    JOINT LeftHandRing
                    {
                      OFFSET -0.5 -2.15 -0.8
                      CHANNELS 6 Xposition Yposition Zposition Zrotation Xrotation Yrotation
                      JOINT LeftHandRing1
                      {
                        OFFSET 0 -7.75 -0.2
                        CHANNELS 6 Xposition Yposition Zposition Zrotation Xrotation Yrotation
                        JOINT LeftHandRing2
                        {
                          OFFSET 0 -3.8 0
                          CHANNELS 6 Xposition Yposition Zposition Zrotation Xrotation Yrotation
                          JOINT LeftHandRing3
                          {
                            OFFSET 0 -3.4 0
                            CHANNELS 6 Xposition Yposition Zposition Zrotation Xrotation Yrotation
                            End Site
                            {
                              OFFSET 0 -2.6 0
                            }
                          }
                        }
                      }
                    }
                    JOINT LeftHandPinky
                    {
                      OFFSET -0.75 -1.75 -1.85
                      CHANNELS 6 Xposition Yposition Zposition Zrotation Xrotation Yrotation
                      JOINT LeftHandPinky1
                      {
                        OFFSET 0 -7.15 -1
                        CHANNELS 6 Xposition Yposition Zposition Zrotation Xrotation Yrotation
                        JOINT LeftHandPinky2
                        {
                          OFFSET 0 -3 0
                          CHANNELS 6 Xposition Yposition Zposition Zrotation Xrotation Yrotation
                          JOINT LeftHandPinky3
                          {
                            OFFSET 0 -2.35 0
                            CHANNELS 6 Xposition Yposition Zposition Zrotation Xrotation Yrotation
                            End Site
                            {
                              OFFSET 0 -2.1 0
                            }
                          }
                        }
                      }
                    }
                  }
                }
              }
            }
          }
          JOINT RightShoulder
          {
            OFFSET -5 17 0
            CHANNELS 6 Xposition Yposition Zposition Zrotation Xrotation Yrotation
            JOINT RightShoulder2
            {
              OFFSET -6.75 0 0
              CHANNELS 6 Xposition Yposition Zposition Zrotation Xrotation Yrotation
              JOINT RightArm
              {
                OFFSET -6.75 0 0
                CHANNELS 6 Xposition Yposition Zposition Zrotation Xrotation Yrotation
                JOINT RightForeArm
                {
                  OFFSET 0 -31.2558 -2
                  CHANNELS 6 Xposition Yposition Zposition Zrotation Xrotation Yrotation
                  JOINT RightHand
                  {
                    OFFSET 0 -24.7442 2
                    CHANNELS 6 Xposition Yposition Zposition Zrotation Xrotation Yrotation
                    JOINT RightHandThumb1
                    {
                      OFFSET 0.5 -1.5 2.65
                      CHANNELS 6 Xposition Yposition Zposition Zrotation Xrotation Yrotation
                      JOINT RightHandThumb2
                      {
                        OFFSET 0 -3.8 3.7
                        CHANNELS 6 Xposition Yposition Zposition Zrotation Xrotation Yrotation
                        JOINT RightHandThumb3
                        {
                          OFFSET 0 -3 2.7
                          CHANNELS 6 Xposition Yposition Zposition Zrotation Xrotation Yrotation
                          End Site
                          {
                            OFFSET 0 -2.3 1.8
                          }
                        }
                      }
                    }
                    JOINT RightHandIndex
                    {
                      OFFSET 0 -1.9 1.6
                      CHANNELS 6 Xposition Yposition Zposition Zrotation Xrotation Yrotation
                      JOINT RightHandIndex1
                      {
                        OFFSET 0 -8.3 1.9
                        CHANNELS 6 Xposition Yposition Zposition Zrotation Xrotation Yrotation
                        JOINT RightHandIndex2
                        {
                          OFFSET 0 -4.5 0
                          CHANNELS 6 Xposition Yposition Zposition Zrotation Xrotation Yrotation
                          JOINT RightHandIndex3
                          {
                            OFFSET 0 -3.4 0
                            CHANNELS 6 Xposition Yposition Zposition Zrotation Xrotation Yrotation
                            End Site
                            {
                              OFFSET 0 -2.6 0
                            }
                          }
                        }
                      }
                    }
                    JOINT RightHandMiddle
                    {
                      OFFSET 0.25 -2.2 0.4
                      CHANNELS 6 Xposition Yposition Zposition Zrotation Xrotation Yrotation
                      JOINT RightHandMiddle1
                      {
                        OFFSET 0 -8.3 1
                        CHANNELS 6 Xposition Yposition Zposition Zrotation Xrotation Yrotation
                        JOINT RightHandMiddle2
                        {
                          OFFSET 0 -4.65 0
                          CHANNELS 6 Xposition Yposition Zposition Zrotation Xrotation Yrotation
                          JOINT RightHandMiddle3
                          {
                            OFFSET 0 -3.3 0
                            CHANNELS 6 Xposition Yposition Zposition Zrotation Xrotation Yrotation
                            End Site
                            {
                              OFFSET 0 -2.7 0
                            }
                          }
                        }
                      }
                    }
                    JOINT RightHandRing
                    {
                      OFFSET 0.5 -2.15 -0.8
                      CHANNELS 6 Xposition Yposition Zposition Zrotation Xrotation Yrotation
                      JOINT RightHandRing1
                      {
                        OFFSET 0 -7.75 -0.2
                        CHANNELS 6 Xposition Yposition Zposition Zrotation Xrotation Yrotation
                        JOINT RightHandRing2
                        {
                          OFFSET 0 -3.8 0
                          CHANNELS 6 Xposition Yposition Zposition Zrotation Xrotation Yrotation
                          JOINT RightHandRing3
                          {
                            OFFSET 0 -3.4 0
                            CHANNELS 6 Xposition Yposition Zposition Zrotation Xrotation Yrotation
                            End Site
                            {
                              OFFSET 0 -2.6 0
                            }
                          }
                        }
                      }
                    }
                    JOINT RightHandPinky
                    {
                      OFFSET 0.75 -1.75 -1.85
                      CHANNELS 6 Xposition Yposition Zposition Zrotation Xrotation Yrotation
                      JOINT RightHandPinky1
                      {
                        OFFSET 0 -7.15 -1
                        CHANNELS 6 Xposition Yposition Zposition Zrotation Xrotation Yrotation
                        JOINT RightHandPinky2
                        {
                          OFFSET 0 -3 0
                          CHANNELS 6 Xposition Yposition Zposition Zrotation Xrotation Yrotation
                          JOINT RightHandPinky3
                          {
                            OFFSET 0 -2.35 0
                            CHANNELS 6 Xposition Yposition Zposition Zrotation Xrotation Yrotation
                            End Site
                            {
                              OFFSET 0 -2.1 0
                            }
                          }
                        }
                      }
                    }
                  }
                }
              }
            }
          }
        }
      }
    }
  }
  JOINT LeftUpLeg
  {
    OFFSET 14 0 0
    CHANNELS 6 Xposition Yposition Zposition Zrotation Xrotation Yrotation
    JOINT LeftLeg
    {
      OFFSET 0 -45.7849 -1
      CHANNELS 6 Xposition Yposition Zposition Zrotation Xrotation Yrotation
      JOINT LeftFoot
      {
        OFFSET 0 -41.7151 -2
        CHANNELS 6 Xposition Yposition Zposition Zrotation Xrotation Yrotation
        JOINT LeftToeBase
        {
          OFFSET 0 -7.5 12.5
          CHANNELS 6 Xposition Yposition Zposition Zrotation Xrotation Yrotation
          JOINT LeftFootToe
          {
            OFFSET 0 0 4
            CHANNELS 6 Xposition Yposition Zposition Zrotation Xrotation Yrotation
            End Site
            {
              OFFSET 0 0 0
            }
          }
        }
      }
    }
  }
  JOINT RightUpLeg
  {
    OFFSET -14 0 0
    CHANNELS 6 Xposition Yposition Zposition Zrotation Xrotation Yrotation
    JOINT RightLeg
    {
      OFFSET 0 -45.7849 -1
      CHANNELS 6 Xposition Yposition Zposition Zrotation Xrotation Yrotation
      JOINT RightFoot
      {
        OFFSET 0 -41.7151 -2
        CHANNELS 6 Xposition Yposition Zposition Zrotation Xrotation Yrotation
        JOINT RightToeBase
        {
          OFFSET 0 -7.5 12.5
          CHANNELS 6 Xposition Yposition Zposition Zrotation Xrotation Yrotation
          JOINT RightFootToe
          {
            OFFSET 0 0 4
            CHANNELS 6 Xposition Yposition Zposition Zrotation Xrotation Yrotation
            End Site
            {
              OFFSET 0 0 0
            }
          }
        }
      }
    }
  }
}
MOTION
Frames:	3
Frame Time:	0.0111111
-94.1113 94.2843 -25.4094 1.04183 -1.75001 122.752 -1.42109e-14 7.29544 1.42109e-14 -16.18 2.89615 9.82124 0 7.29544 -1.42109e-14 -3.85266 5.38705 -4.22394 1.42109e-14 7.29544 0 -1.98227 2.66071 -2.15798 1.42109e-14 7.29544 -1.42109e-14 -1.97518 2.65423 -2.15321 7.10543e-15 15.5028 0 -5.18979 -2.84015 -0.394809 0 9.84884 0 -12.198 -6.56163 -1.32643 5 17 -1.42109e-14 -10.9715 5.16141 -3.26004 6.75 0 1.42109e-14 0.524178 2.58194 -3.56334 6.75 0 0 32.2971 -18.1455 20.5872 0 -31.2558 -2 6.34336 -0.796703 -14.5632 0 -24.7442 2 6.00801 -4.67651 -18.5564 -0.5 -1.5 2.65 -0.126689 3.35615 -8.8646 -7.10543e-15 -3.8 3.7 0.0677193 2.22058 -0.0105909 0 -3 2.7 9.00212e-05 0.541675 -0.00952216 -1.42109e-14 -1.9 1.6 5.51738e-33 1.98785e-16 -1.59028e-15 0 -8.3 1.9 -4.90814 -4.153 -0.152976 -1.42109e-14 -4.5 -1.42109e-14 -1.42383 5.2181e-16 6.36111e-15 0 -3.4 -1.42109e-14 -1.39649 2.48481e-16 9.54166e-15 -0.25 -2.2 0.4 5.51738e-33 1.98785e-16 -1.59028e-15 0 -8.3 1 -5.64116 -2.54235 -0.0845973 0 -4.65 0 -4.67589 1.98785e-16 2.22639e-14 -7.10543e-15 -3.3 0 -4.39342 -3.37934e-15 1.74931e-14 -0.5 -2.15 -0.8 5.51738e-33 1.98785e-16 -1.59028e-15 0 -7.75 -0.2 -7.02429 0.239534 0.0973817 0 -3.8 -1.42109e-14 -4.96962e-17 -6.1499e-16 -0 -7.10543e-15 -3.4 1.42109e-14 -2.48481e-16 1.80149e-16 -0 -0.75 -1.75 -1.85 5.51738e-33 1.98785e-16 -1.59028e-15 0 -7.15 -1 -7.59607 1.64478 0.209906 0 -3 0 -2.94389 1.98785e-16 1.27222e-14 0 -2.35 0 -2.82929 -9.93923e-16 1.11319e-14 -5 17 0 -10.0805 1.96765 1.6774 -6.75 0 -1.42109e-14 -2.23725 -3.1482 -1.35443 -6.75 -2.84217e-14 0 6.10568 2.43197 13.2368 -3.55271e-15 -31.2558 -2 9.86625 -13.9577 8.73527 0 -24.7442 2 0.375924 -4.44831 12.5808 0.5 -1.5 2.65 -3.46806 -1.68884 -7.86226 -7.10543e-15 -3.8 3.7 -0.139033 0.485521 6.36134e-15 -1.42109e-14 -3 2.7 -0.0133172 0.826688 0.0166866 1.42109e-14 -1.9 1.6 2.38542e-15 1.59028e-15 3.18055e-15 0 -8.3 1.9 8.69734 -2.04036 0.120856 7.10543e-15 -4.5 7.10543e-15 6.17407 3.18055e-15 -0 -1.42109e-14 -3.4 -7.10543e-15 5.69232 -5.56597e-15 3.18055e-15 0.25 -2.2 0.4 2.38542e-15 1.59028e-15 3.18055e-15 7.10543e-15 -8.3 1 8.70399 -1.60008 0.0637476 -1.42109e-14 -4.65 0 7.57146 0 3.18055e-15 0 -3.3 0 6.8606 -7.95139e-16 -0 0.5 -2.15 -0.8 2.38542e-15 1.59028e-15 3.18055e-15 -7.10543e-15 -7.75 -0.2 8.54834 -0.910443 -0.0289988 0 -3.8 7.10543e-15 8.18491 -7.95139e-16 -3.18055e-15 0 -3.4 0 7.36159 -7.95139e-16 -3.18055e-15 0.75 -1.75 -1.85 2.38542e-15 1.59028e-15 3.18055e-15 0 -7.15 -1 8.3215 -0.539679 -0.076768 0 -3 7.10543e-15 3.96909 1.59028e-15 -0 0 -2.35 0 3.7636 1.59028e-15 -0 14 -1.42109e-14 1.42109e-14 9.19338 -7.38659 -8.30925 0 -45.7849 -1 -0.0102118 11.4386 0.18715 0 -41.7151 -2 -8.09001 -4.97686 6.79247 -1.42109e-14 -7.5 12.5 -2.71776e-18 -2.17421e-17 -0 0 0 4 6.84395 1.03201 -12.4483 -14 -1.42109e-14 1.42109e-14 4.00458 -1.59411 -17.1143 7.10543e-15 -45.7849 -1 -0.00386053 3.85674 -0.543032 0 -41.7151 -2 -2.30253 -2.99178 12.1513 0 -7.5 12.5 -1.16475e-18 7.76503e-19 -3.18055e-15 0 -8.67362e-19 4 9.8776 -2.98238 -13.6017 
-94.111 94.2841 -25.4034 1.04258 -1.74853 122.778 -1.42109e-14 7.29544 0 -16.1768 2.89242 9.82617 7.10543e-15 7.29544 0 -3.85334 5.38532 -4.22434 7.10543e-15 7.29544 -1.42109e-14 -1.98212 2.65979 -2.15818 3.55271e-15 7.29544 0 -1.97499 2.65331 -2.15346 -1.77636e-14 15.5028 0 -5.19368 -2.83993 -0.391126 -3.55271e-15 9.84884 2.84217e-14 -12.2067 -6.55305 -1.31705 5 17 -1.42109e-14 -10.9766 5.16194 -3.25638 6.75 0 1.42109e-14 0.524566 2.58164 -3.56413 6.75 0 1.42109e-14 32.3004 -18.1484 20.6351 0 -31.2558 -2 6.33368 -0.796263 -14.6103 0 -24.7442 2 6.01064 -4.67665 -18.5509 -0.5 -1.5 2.65 -0.113541 3.35567 -8.85277 0 -3.8 3.7 0.0677215 2.23245 -0.010591 0 -3 2.7 8.83001e-05 0.531319 -0.00952214 -1.42109e-14 -1.9 1.6 1.65521e-32 -5.96354e-16 1.59028e-15 -1.42109e-14 -8.3 1.9 -4.91288 -4.1505 -0.153008 0 -4.5 0 -1.41197 -3.47873e-16 4.77083e-15 0 -3.4 -1.42109e-14 -1.38508 3.8266e-15 6.36111e-15 -0.25 -2.2 0.4 1.65521e-32 -5.96354e-16 1.59028e-15 0 -8.3 1 -5.64527 -2.54056 -0.0845008 0 -4.65 0 -4.67236 1.39149e-15 7.95139e-15 0 -3.3 0 -4.39031 -1.98785e-15 1.11319e-14 -0.5 -2.15 -0.8 1.65521e-32 -5.96354e-16 1.59028e-15 0 -7.75 -0.2 -7.027 0.240834 0.0975931 7.10543e-15 -3.8 0 -1.38624e-31 1.66482e-15 4.77083e-15 0 -3.4 -1.42109e-14 -2.48481e-16 -7.20594e-16 -0 -0.75 -1.75 -1.85 1.65521e-32 -5.96354e-16 1.59028e-15 0 -7.15 -1 -7.59836 1.64555 0.210041 7.10543e-15 -3 -1.42109e-14 -2.94365 -1.2921e-15 7.95139e-15 7.10543e-15 -2.35 0 -2.82906 5.96354e-16 4.77083e-15 -5 17 0 -10.0842 1.97063 1.68398 -6.75 0 0 -2.23746 -3.15088 -1.35401 -6.75 0 -1.42109e-14 6.10197 2.43175 13.2455 -1.77636e-15 -31.2558 -2 9.86188 -13.955 8.74777 7.10543e-15 -24.7442 2 0.372836 -4.45725 12.5858 0.5 -1.5 2.65 -3.46858 -1.68799 -7.86416 7.10543e-15 -3.8 3.7 -0.139033 0.485521 3.18067e-15 -7.10543e-15 -3 2.7 -0.0133172 0.826688 0.0166866 0 -1.9 1.6 -7.95139e-16 -1.59028e-15 9.54166e-15 0 -8.3 1.9 8.69788 -2.04023 0.120872 -7.10543e-15 -4.5 7.10543e-15 6.1734 1.59028e-15 -3.18055e-15 -1.42109e-14 -3.4 0 5.69192 -1.59028e-15 -0 0.25 -2.2 0.4 -7.95139e-16 -1.59028e-15 9.54166e-15 -1.42109e-14 -8.3 1 8.70918 -1.59993 0.0637603 7.10543e-15 -4.65 0 7.57161 1.59028e-15 -0 0 -3.3 -7.10543e-15 6.86033 1.59028e-15 3.18055e-15 0.5 -2.15 -0.8 -7.95139e-16 -1.59028e-15 9.54166e-15 -1.42109e-14 -7.75 -0.2 8.54919 -0.910053 -0.029006 0 -3.8 0 8.18497 -1.59028e-15 3.18055e-15 1.42109e-14 -3.4 0 7.36163 1.59028e-15 -3.18055e-15 0.75 -1.75 -1.85 -7.95139e-16 -1.59028e-15 9.54166e-15 1.42109e-14 -7.15 -1 8.32083 -0.539407 -0.0767776 1.42109e-14 -3 0 3.96927 -1.59028e-15 3.18055e-15 0 -2.35 0 3.76375 -1.59028e-15 -0 14 0 1.42109e-14 9.19564 -7.39475 -8.31257 0 -45.7849 -1 -0.00980453 11.4356 0.184969 0 -41.7151 -2 -8.0944 -4.96586 6.77274 0 -7.5 12.5 1.16475e-17 3.37779e-17 -3.18055e-15 0 2.77556e-17 4 6.84764 1.0325 -12.4483 -14 1.42109e-14 0 4.00867 -1.5927 -17.1085 0 -45.7849 -1 -0.00383515 3.85672 -0.54327 7.10543e-15 -41.7151 -2 -2.30711 -2.99453 12.1239 7.10543e-15 -7.5 12.5 9.69852e-35 -5.82377e-19 9.54166e-15 0 0 4 9.87022 -2.97798 -13.6019 
-94.1108 94.284 -25.3963 1.04284 -1.74617 122.807 -1.42109e-14 7.29544 0 -16.174 2.88954 9.83106 7.10543e-15 7.29544 1.42109e-14 -3.85402 5.3836 -4.22474 -7.10543e-15 7.29544 -1.42109e-14 -1.98198 2.65891 -2.15838 -3.55271e-15 7.29544 -1.42109e-14 -1.97481 2.65243 -2.15371 0 15.5028 -1.42109e-14 -5.19738 -2.83993 -0.387499 3.55271e-15 9.84884 2.84217e-14 -12.2151 -6.54658 -1.30891 5 17 -1.42109e-14 -10.9812 5.16247 -3.25291 6.75 0 -2.84217e-14 0.524941 2.58134 -3.56491 6.75 0 1.42109e-14 32.3019 -18.1486 20.6757 -1.42109e-14 -31.2558 -2 6.32533 -0.795849 -14.6538 1.42109e-14 -24.7442 2 6.01311 -4.67887 -18.5441 -0.5 -1.5 2.65 -0.100993 3.35533 -8.83761 0 -3.8 3.7 0.0677233 2.24196 -0.0105911 0 -3 2.7 8.67627e-05 0.522069 -0.00952213 0 -1.9 1.6 -7.95139e-16 -1.39149e-15 -0 0 -8.3 1.9 -4.91521 -4.14777 -0.153039 0 -4.5 0 -1.39999 1.3418e-15 -3.18055e-15 0 -3.4 -1.42109e-14 -1.37355 3.04389e-15 -3.18055e-15 -0.25 -2.2 0.4 -7.95139e-16 -1.39149e-15 -0 0 -8.3 1 -5.64638 -2.53796 -0.0844043 0 -4.65 1.42109e-14 -4.66639 2.18663e-15 -1.27222e-14 -1.42109e-14 -3.3 -1.42109e-14 -4.38503 -2.78299e-15 4.77083e-15 -0.5 -2.15 -0.8 -7.95139e-16 -1.39149e-15 -0 0 -7.75 -0.2 -7.02777 0.242156 0.0978045 0 -3.8 2.84217e-14 -2.48481e-16 3.35449e-16 -3.18055e-15 -7.10543e-15 -3.4 0 -1.49089e-16 3.10601e-16 -1.59028e-15 -0.75 -1.75 -1.85 -7.95139e-16 -1.39149e-15 -0 0 -7.15 -1 -7.59925 1.64631 0.210175 0 -3 -1.42109e-14 -2.94367 6.95746e-16 -3.18055e-15 0 -2.35 -1.42109e-14 -2.82908 2.18663e-15 -0 -5 17 -2.84217e-14 -10.0868 1.97126 1.68925 -6.75 0 0 -2.23766 -3.15365 -1.35358 -6.75 0 -1.42109e-14 6.09775 2.43193 13.2526 3.55271e-15 -31.2558 -2 9.85918 -13.953 8.75923 0 -24.7442 2 0.367754 -4.46509 12.5926 0.5 -1.5 2.65 -3.46915 -1.68727 -7.86638 -1.42109e-14 -3.8 3.7 -0.139033 0.485521 -0 -7.10543e-15 -3 2.7 -0.0133172 0.826688 0.0166866 -7.10543e-15 -1.9 1.6 -6.36111e-15 -1.59028e-15 -6.36111e-15 -7.10543e-15 -8.3 1.9 8.698 -2.04013 0.120888 7.10543e-15 -4.5 -7.10543e-15 6.17272 7.95139e-16 -0 1.42109e-14 -3.4 -7.10543e-15 5.69156 0 -6.36111e-15 0.25 -2.2 0.4 -6.36111e-15 -1.59028e-15 -6.36111e-15 7.10543e-15 -8.3 1 8.70912 -1.59981 0.063773 -7.10543e-15 -4.65 0 7.57172 0 -6.36111e-15 1.42109e-14 -3.3 0 6.85966 7.95139e-16 -3.18055e-15 0.5 -2.15 -0.8 -6.36111e-15 -1.59028e-15 -6.36111e-15 -7.10543e-15 -7.75 -0.2 8.54999 -0.909703 -0.0290132 -7.10543e-15 -3.8 -7.10543e-15 8.18631 -3.18055e-15 3.18055e-15 1.42109e-14 -3.4 0 7.3627 1.59028e-15 -0 0.75 -1.75 -1.85 -6.36111e-15 -1.59028e-15 -6.36111e-15 0 -7.15 -1 8.32016 -0.539159 -0.0767872 -2.13163e-14 -3 0 3.96942 1.59028e-15 3.18055e-15 -1.42109e-14 -2.35 0 3.76389 0 -0 14 -2.84217e-14 0 9.1984 -7.40236 -8.31464 -1.42109e-14 -45.7849 -1 -0.00938036 11.4296 0.182749 -1.42109e-14 -41.7151 -2 -8.09934 -4.95218 6.75007 0 -7.5 12.5 -1.00945e-17 1.04828e-17 -3.18055e-15 0 0 4 6.85168 1.033 -12.4483 -14 0 1.42109e-14 4.0128 -1.59132 -17.1033 0 -45.7849 -1 -0.00380958 3.8567 -0.543511 0 -41.7151 -2 -2.31181 -2.99727 12.0954 0 -7.5 12.5 -3.88251e-19 5.82377e-19 -0 0 -1.73472e-18 4 9.86273 -2.97275 -13.602 
